<svg width="16" height="16" viewBox="0 0 16 16" fill="none" xmlns="http://www.w3.org/2000/svg">
<path fill-rule="evenodd" clip-rule="evenodd" d="M7.99935 3.33337C4.66602 3.33337 1.81935 5.40671 0.666016 8.33337C1.81935 11.26 4.66602 13.3334 7.99935 13.3334C11.3327 13.3334 14.1793 11.26 15.3327 8.33337C14.1793 5.40671 11.3327 3.33337 7.99935 3.33337ZM7.99935 11.6667C6.15935 11.6667 4.66602 10.1734 4.66602 8.33337C4.66602 6.49337 6.15935 5.00004 7.99935 5.00004C9.83935 5.00004 11.3327 6.49337 11.3327 8.33337C11.3327 10.1734 9.83935 11.6667 7.99935 11.6667ZM7.99935 6.33337C6.89268 6.33337 5.99935 7.22671 5.99935 8.33337C5.99935 9.44004 6.89268 10.3334 7.99935 10.3334C9.10602 10.3334 9.99935 9.44004 9.99935 8.33337C9.99935 7.22671 9.10602 6.33337 7.99935 6.33337Z" fill="#969696"/>
</svg>
